<svg width="36" height="37" viewBox="0 0 36 37" fill="none" xmlns="http://www.w3.org/2000/svg">
<path d="M17.999 35.4233C27.5151 35.4458 35.2476 27.7497 35.2701 18.2337C35.2926 8.71761 27.5965 0.985089 18.0805 0.962599C8.56439 0.940108 0.831865 8.63617 0.809374 18.1522C0.786883 27.6683 8.48294 35.4008 17.999 35.4233Z" fill="#EA4C89"/>
<path fill-rule="evenodd" clip-rule="evenodd" d="M18.0818 0.406783C8.26278 0.383576 0.276824 8.33187 0.253617 18.1509C0.23041 27.97 8.17871 35.9559 17.9978 35.9791C27.7975 36.0023 35.8028 28.0541 35.826 18.235C35.8492 8.41595 27.8816 0.429945 18.0818 0.406783ZM29.8106 8.63316C31.9264 11.2232 33.1919 14.5249 33.2221 18.0938C32.7207 17.9962 27.7074 16.9619 22.6518 17.5866C22.5366 17.3355 22.4408 17.0651 22.3257 16.7949C22.0187 16.0611 21.6733 15.3079 21.3278 14.5933C26.9274 12.3303 29.4816 9.05679 29.8106 8.63316ZM18.0756 3.03034C21.9338 3.03946 25.4606 4.49462 28.1365 6.87374C27.8654 7.25891 25.5625 10.3207 20.1563 12.3335C17.6786 7.75568 14.9289 4.00674 14.5059 3.42701C15.6446 3.15963 16.841 3.02743 18.0756 3.03034ZM11.6099 4.44259C12.0137 4.98369 14.7055 8.75179 17.222 13.2332C10.1185 15.107 3.84906 15.0536 3.17388 15.052C4.16883 10.3473 7.36108 6.4388 11.6099 4.44259ZM2.83855 18.1764C2.83891 18.022 2.83928 17.8677 2.83964 17.7134C3.49548 17.7342 10.8644 17.8481 18.451 15.5897C18.8928 16.4395 19.2958 17.3085 19.6796 18.1775C19.4865 18.2349 19.2741 18.2924 19.0811 18.3497C11.2431 20.8583 7.05992 27.7546 6.71132 28.3325C4.30629 25.6454 2.82934 22.0731 2.83855 18.1764ZM18.0039 33.3941C14.4929 33.3858 11.2549 32.1822 8.69394 30.1698C8.96534 29.6111 12.0659 23.6768 20.6381 20.707C20.6767 20.6877 20.6961 20.6878 20.7347 20.6686C22.8628 26.2101 23.72 30.8612 23.9483 32.1928C22.1138 32.9794 20.1065 33.3991 18.0039 33.3941ZM26.4787 30.8099C26.3266 29.8836 25.5268 25.4448 23.5528 19.9807C28.3194 19.2396 32.4833 20.4842 33.0038 20.659C32.3379 24.8821 29.8986 28.5223 26.4787 30.8099Z" fill="#C32361"/>
</svg>
