<svg width="25" height="36" viewBox="0 0 25 36" fill="none" xmlns="http://www.w3.org/2000/svg">
<path d="M6.77091 35.8442C10.0436 35.8519 12.706 33.2021 12.7137 29.9295L12.7278 24.0007L6.79893 23.9867C3.52625 23.9789 0.86384 26.6288 0.856105 29.9014C0.84837 33.1741 3.49823 35.8365 6.77091 35.8442Z" fill="#0ACF83"/>
<path d="M0.884181 18.044C0.891916 14.7713 3.55433 12.1215 6.82701 12.1292L12.7558 12.1433L12.7278 24.0007L6.79899 23.9866C3.5263 23.9791 0.876446 21.3167 0.884181 18.044Z" fill="#A259FF"/>
<path d="M0.912257 6.18658C0.919992 2.91393 3.58241 0.26409 6.85509 0.271825L12.7839 0.285838L12.7559 12.1432L6.82706 12.1292C3.55438 12.1215 0.904522 9.45924 0.912257 6.18658Z" fill="#F24E1E"/>
<path d="M12.7837 0.285889L18.7125 0.299901C21.9852 0.307636 24.635 2.97003 24.6273 6.24269C24.6196 9.51534 21.9572 12.165 18.6845 12.1573L12.7557 12.1433L12.7837 0.285889Z" fill="#FF7262"/>
<path d="M24.5992 18.1001C24.5915 21.3728 21.9291 24.0226 18.6564 24.0149C15.3837 24.0071 12.7339 21.3447 12.7416 18.0721C12.7493 14.7994 15.4118 12.1496 18.6844 12.1573C21.9571 12.1651 24.607 14.8275 24.5992 18.1001Z" fill="#1ABCFE"/>
</svg>
