<svg width="36" height="36" viewBox="0 0 36 36" fill="none" xmlns="http://www.w3.org/2000/svg">
<path fill-rule="evenodd" clip-rule="evenodd" d="M18.0169 0.864044C13.7945 0.856255 9.70705 2.34209 6.48538 5.05588C3.26371 7.76966 1.11793 11.5344 0.431732 15.677C-0.254469 19.8195 0.563646 24.0698 2.73981 27.6677C4.91597 31.2656 8.30826 33.9766 12.3101 35.3159C13.1933 35.4819 13.5274 34.9351 13.5285 34.4695C13.5296 34.0039 13.5151 32.6538 13.5127 31.1778C8.5622 32.235 7.52412 29.0757 7.52412 29.0757C6.72198 27.0238 5.55694 26.4822 5.55694 26.4822C3.94555 25.3832 5.68024 25.4078 5.68024 25.4078C7.46769 25.5379 8.40321 27.2387 8.40321 27.2387C9.98134 29.9454 12.5602 29.1696 13.5745 28.7151C13.7362 27.5705 14.2005 26.7926 14.711 26.3516C10.7596 25.8971 6.61043 24.3704 6.62645 17.5939C6.60611 15.8364 7.26601 14.1384 8.4696 12.8512C8.28805 12.4056 7.68263 10.6061 8.65444 8.16605C8.65444 8.16605 10.1488 7.69517 13.5422 9.99034C16.4593 9.20453 19.5351 9.2118 22.4485 10.0114C25.8497 7.73228 27.3389 8.21021 27.3389 8.21021C28.3021 10.649 27.6882 12.4456 27.5045 12.8962C28.7058 14.1893 29.3591 15.8933 29.3282 17.6534C29.3121 24.4445 25.147 25.9311 21.1876 26.3581C21.8225 26.9102 22.3884 27.9863 22.3845 29.6379C22.3789 32.0041 22.3537 33.9076 22.3524 34.4903C22.3512 34.9618 22.671 35.5131 23.5726 35.3425C27.5812 34.022 30.9866 31.3266 33.1797 27.7384C35.3728 24.1502 36.2106 19.9032 35.5432 15.7571C34.8758 11.6109 32.7468 7.83603 29.5369 5.10752C26.3271 2.379 22.2457 0.874841 18.0228 0.864058L18.0169 0.864044Z" fill="#191717"/>
<path d="M6.90649 26.2306C6.868 26.3183 6.72657 26.3444 6.61185 26.2826C6.49713 26.2208 6.412 26.1064 6.45344 26.0157C6.49489 25.925 6.63337 25.9019 6.74809 25.9637C6.86281 26.0255 6.95088 26.1428 6.90649 26.2306Z" fill="#191717"/>
<path d="M7.62574 27.0319C7.56467 27.0624 7.49487 27.0707 7.42829 27.0556C7.3617 27.0405 7.30247 27.0028 7.26073 26.9491C7.14616 26.8258 7.12298 26.6559 7.21152 26.58C7.30006 26.5041 7.45903 26.5396 7.5736 26.6628C7.68817 26.7861 7.71428 26.956 7.62574 27.0319Z" fill="#191717"/>
<path d="M8.3247 28.0498C8.21555 28.1257 8.03017 28.0491 7.92745 27.8966C7.89901 27.8692 7.87642 27.8364 7.86102 27.8002C7.84562 27.7639 7.83772 27.7249 7.83781 27.6856C7.83791 27.6462 7.84599 27.6073 7.86156 27.5711C7.87713 27.5349 7.89987 27.5022 7.92844 27.4749C8.03759 27.402 8.22298 27.4756 8.32571 27.6252C8.42844 27.7748 8.43091 27.9739 8.3247 28.0498Z" fill="#191717"/>
<path d="M9.27367 29.0358C9.17622 29.144 8.97896 29.1142 8.81732 28.9674C8.65568 28.8206 8.61785 28.6214 8.7153 28.5162C8.81274 28.411 9.01 28.4407 9.17754 28.5846C9.34508 28.7285 9.377 28.9307 9.27367 29.0358Z" fill="#191717"/>
<path d="M10.6063 29.6131C10.5617 29.7506 10.3613 29.8117 10.1612 29.7526C9.96105 29.6936 9.82891 29.5293 9.86753 29.3888C9.90615 29.2483 10.1095 29.1844 10.3126 29.2493C10.5157 29.3142 10.6449 29.4697 10.6063 29.6131Z" fill="#191717"/>
<path d="M12.061 29.7161C12.0607 29.8596 11.8955 29.9822 11.6834 29.9846C11.4713 29.9871 11.2979 29.8695 11.2982 29.726C11.2985 29.5825 11.4637 29.4599 11.6758 29.4575C11.8879 29.4551 12.0614 29.5697 12.061 29.7161Z" fill="#191717"/>
<path d="M13.4164 29.4938C13.4426 29.6373 13.295 29.7863 13.0828 29.821C12.8707 29.8556 12.6853 29.7702 12.6592 29.6296C12.633 29.489 12.7865 29.3371 12.9928 29.2995C13.199 29.2619 13.3902 29.3502 13.4164 29.4938Z" fill="#191717"/>
</svg>
