<svg width="36" height="37" viewBox="0 0 36 37" fill="none" xmlns="http://www.w3.org/2000/svg">
<path d="M17.9605 4.04206C22.7127 4.05329 23.2754 4.07546 25.1442 4.16325C26.8809 4.24378 27.8182 4.5378 28.4429 4.78245C29.2689 5.104 29.8655 5.49449 30.4824 6.11429C31.1062 6.74107 31.487 7.33253 31.8046 8.16006C32.0463 8.78593 32.3359 9.73151 32.4082 11.4617C32.4871 13.3378 32.5066 13.9006 32.4954 18.6459C32.4842 23.3981 32.462 23.9608 32.3742 25.8296C32.2937 27.5663 31.9997 28.5036 31.755 29.1283C31.4335 29.9543 31.043 30.5509 30.4232 31.1678C29.7964 31.7916 29.205 32.1723 28.3774 32.49C27.7516 32.7317 26.806 33.0212 25.0758 33.0936C23.1997 33.1725 22.6369 33.192 17.8916 33.1808C13.1394 33.1696 12.5767 33.1474 10.7079 33.0596C8.97117 32.9791 8.03392 32.6851 7.4092 32.4404C6.58317 32.1189 5.98659 31.7284 5.3697 31.1086C4.74588 30.4818 4.36515 29.8903 4.04751 29.0628C3.80582 28.4369 3.51625 27.4914 3.44391 25.7612C3.36497 23.8851 3.34546 23.3223 3.35668 18.577C3.36791 13.8248 3.39008 13.262 3.47787 11.3933C3.5584 9.65655 3.85242 8.7193 4.09707 8.09458C4.41862 7.26855 4.80911 6.67197 5.42891 6.05508C6.05569 5.43126 6.64715 5.05054 7.47468 4.73289C8.10055 4.4912 9.04613 4.20163 10.7763 4.12929C12.6454 4.05034 13.2082 4.03083 17.9605 4.04206ZM17.9681 0.839156C13.1394 0.827744 12.5349 0.847158 10.638 0.926048C8.74799 1.00495 7.44804 1.30758 6.32147 1.74263C5.14622 2.1984 4.15127 2.80051 3.16235 3.7917C2.16649 4.77593 1.55969 5.76803 1.09838 6.93416C0.657997 8.0656 0.349243 9.35716 0.261404 11.2467C0.173532 13.1502 0.15126 13.7546 0.139848 18.5833C0.128435 23.412 0.14785 24.0165 0.22674 25.9134C0.305646 27.8034 0.608275 29.1033 1.04332 30.2299C1.4991 31.4051 2.1012 32.4001 3.09239 33.389C4.07664 34.3779 5.06872 34.9917 6.23487 35.446C7.36631 35.8864 8.65787 36.1952 10.5475 36.283C12.444 36.3709 13.0484 36.3931 17.8771 36.4045C22.7057 36.416 23.3102 36.3965 25.2071 36.3176C27.0971 36.2387 28.3971 35.9361 29.5236 35.5011C30.6919 35.0522 31.6869 34.4432 32.6758 33.4589C33.6647 32.4747 34.2785 31.4826 34.7328 30.3165C35.1732 29.185 35.482 27.8935 35.5698 26.0039C35.6577 24.1073 35.6799 23.5029 35.6913 18.6743C35.7027 13.8456 35.6833 13.2411 35.6044 11.3442C35.5255 9.45419 35.2229 8.15425 34.7879 7.02768C34.3529 5.84553 33.7508 4.85058 32.7597 3.86165C31.7754 2.87275 30.7833 2.259 29.6172 1.80464C28.4857 1.36425 27.1942 1.0555 25.3046 0.96766C23.4011 0.872841 22.7967 0.850569 17.9681 0.839156Z" fill="#000100"/>
<path d="M17.9475 9.48912C12.9035 9.4772 8.80161 13.5597 8.78969 18.6038C8.77776 23.6478 12.8603 27.7497 17.9043 27.7616C22.9484 27.7736 27.0503 23.691 27.0622 18.647C27.0741 13.6029 22.9916 9.50104 17.9475 9.48912ZM17.9119 24.5518C14.6396 24.5441 11.9918 21.8838 11.9995 18.6114C12.0073 15.339 14.6676 12.6912 17.94 12.699C21.2123 12.7067 23.8601 15.367 23.8524 18.6394C23.8446 21.9118 21.1843 24.5595 17.9119 24.5518Z" fill="#000100"/>
<path d="M29.579 9.15549C29.5762 10.3366 28.6151 11.2862 27.441 11.2834C26.2599 11.2806 25.3103 10.3196 25.3131 9.14541C25.3159 7.96429 26.2769 7.01472 27.4511 7.01749C28.6252 7.02027 29.5818 7.98132 29.579 9.15549Z" fill="#000100"/>
</svg>
