<svg width="36" height="37" viewBox="0 0 36 37" fill="none" xmlns="http://www.w3.org/2000/svg">
<path d="M33.0721 0.591296L2.75166 0.519634C2.05522 0.517988 1.38665 0.79307 0.893032 1.28436C0.399411 1.77566 0.121172 2.44292 0.119526 3.13936L0.0478644 33.4598C0.0462184 34.1563 0.3213 34.8249 0.812594 35.3185C1.30389 35.8121 1.97115 36.0903 2.66759 36.092L32.9881 36.1636C33.6845 36.1653 34.3531 35.8902 34.8467 35.3989C35.3403 34.9076 35.6186 34.2404 35.6202 33.5439L35.6919 3.22343C35.6935 2.52699 35.4184 1.85842 34.9271 1.3648C34.4359 0.871181 33.7686 0.592942 33.0721 0.591296ZM10.6566 30.8417L5.30844 30.829L5.3486 13.8408L10.6968 13.8534L10.6566 30.8417ZM8.02456 11.4929C7.4179 11.488 6.82628 11.3036 6.32435 10.9628C5.82243 10.6221 5.4327 10.1402 5.20434 9.57818C4.97598 9.01613 4.91924 8.39902 5.04127 7.80475C5.1633 7.21048 5.45864 6.66567 5.89 6.23909C6.32137 5.8125 6.86944 5.52326 7.46503 5.40786C8.06063 5.29246 8.67706 5.35608 9.23654 5.59069C9.79601 5.82529 10.2735 6.22037 10.6086 6.72607C10.9438 7.23176 11.1216 7.8254 11.1197 8.43207C11.1244 8.83825 11.0474 9.24123 10.8931 9.617C10.7388 9.99276 10.5104 10.3336 10.2216 10.6192C9.93277 10.9049 9.58939 11.1294 9.21193 11.2795C8.83447 11.4296 8.43066 11.5022 8.02456 11.4929ZM30.3696 30.9031L25.0239 30.8905L25.0458 21.6095C25.0523 18.8724 23.8908 18.0248 22.3888 18.0213C20.8029 18.0175 19.2438 19.2095 19.238 21.665L19.2162 30.8767L13.868 30.8641L13.9082 13.8734L19.0513 13.8855L19.0458 16.2397L19.1149 16.2399C19.6337 15.1962 21.4462 13.4144 24.2055 13.4209C27.1896 13.428 30.4092 15.2068 30.3969 20.3944L30.3696 30.9031Z" fill="#0A66C2"/>
</svg>
