<svg width="36" height="26" viewBox="0 0 36 26" fill="none" xmlns="http://www.w3.org/2000/svg">
<path d="M35.1594 4.83121C34.9601 4.07396 34.5654 3.38233 34.0148 2.82556C33.4641 2.26878 32.777 1.86639 32.022 1.65865C29.2426 0.904248 18.1263 0.877975 18.1263 0.877975C18.1263 0.877975 7.0099 0.851702 4.22702 1.59296C3.47106 1.79713 2.78198 2.19627 2.22875 2.75043C1.67551 3.3046 1.27753 3.99435 1.07463 4.75065C0.324238 7.54213 0.310471 13.3671 0.310471 13.3671C0.310471 13.3671 0.296704 19.1921 1.03389 21.9871C1.23321 22.7443 1.62793 23.4359 2.17854 23.9927C2.72915 24.5495 3.41634 24.9519 4.17133 25.1596C6.95067 25.914 18.067 25.9403 18.067 25.9403C18.067 25.9403 29.1834 25.9666 31.9663 25.2253C32.7222 25.0212 33.4113 24.622 33.9645 24.0678C34.5178 23.5137 34.9158 22.8239 35.1187 22.0676C35.8691 19.2762 35.8828 13.4512 35.8828 13.4512C35.8828 13.4512 35.8966 7.62621 35.1594 4.83121Z" fill="#FF0302"/>
<path d="M14.4459 18.6901L14.4709 8.11133L23.7558 13.4227L14.4459 18.6901Z" fill="#FEFEFE"/>
</svg>
